<?xml version="1.0" encoding="UTF-8" standalone="no"?>
<!DOCTYPE svg PUBLIC "-//W3C//DTD SVG 1.1//EN"
 "http://www.w3.org/Graphics/SVG/1.1/DTD/svg11.dtd">
<!-- Generated by graphviz version 2.42.3 (20191010.1750)
 -->
<!-- Title: gr Pages: 1 -->
<svg width="481pt" height="446pt"
 viewBox="0.00 0.00 481.00 446.00" xmlns="http://www.w3.org/2000/svg" xmlns:xlink="http://www.w3.org/1999/xlink">
<g id="graph0" class="graph" transform="scale(1 1) rotate(0) translate(4 442)">
<title>gr</title>
<polygon fill="white" stroke="transparent" points="-4,4 -4,-442 477,-442 477,4 -4,4"/>
<!-- 5 -->
<g id="node1" class="node">
<title>5</title>
<ellipse fill="none" stroke="black" cx="18" cy="-70" rx="18" ry="18"/>
<text text-anchor="middle" x="18" y="-66.3" font-family="Times,serif" font-size="14.00">5</text>
</g>
<!-- 4 -->
<g id="node2" class="node">
<title>4</title>
<ellipse fill="none" stroke="black" cx="109" cy="-159" rx="18" ry="18"/>
<text text-anchor="middle" x="109" y="-155.3" font-family="Times,serif" font-size="14.00">4</text>
</g>
<!-- 5&#45;&gt;4 -->
<g id="edge1" class="edge">
<title>5&#45;&gt;4</title>
<path fill="none" stroke="black" d="M30.77,-83.22C37.46,-90.63 46.06,-99.96 54,-108 64.72,-118.86 77.08,-130.58 87.26,-140.04"/>
<polygon fill="black" stroke="black" points="85.16,-142.87 94.88,-147.09 89.91,-137.73 85.16,-142.87"/>
<text text-anchor="middle" x="63.5" y="-129.8" font-family="Times,serif" font-size="14.00">0</text>
</g>
<!-- 1 -->
<g id="node3" class="node">
<title>1</title>
<ellipse fill="none" stroke="black" cx="364" cy="-120" rx="18" ry="18"/>
<text text-anchor="middle" x="364" y="-116.3" font-family="Times,serif" font-size="14.00">1</text>
</g>
<!-- 5&#45;&gt;1 -->
<g id="edge2" class="edge">
<title>5&#45;&gt;1</title>
<path fill="none" stroke="black" d="M35.18,-64.4C52.85,-58.8 82.09,-51 108,-51 108,-51 108,-51 283,-51 311.44,-51 334.78,-76.31 348.76,-96.28"/>
<polygon fill="black" stroke="black" points="345.89,-98.29 354.34,-104.69 351.73,-94.42 345.89,-98.29"/>
<text text-anchor="middle" x="200" y="-54.8" font-family="Times,serif" font-size="14.00">0</text>
</g>
<!-- 4&#45;&gt;5 -->
<g id="edge3" class="edge">
<title>4&#45;&gt;5</title>
<path fill="none" stroke="black" d="M103.43,-141.72C98.42,-125.95 88.9,-103.02 73,-89 65.45,-82.34 55.41,-77.97 46.04,-75.13"/>
<polygon fill="black" stroke="black" points="46.84,-71.72 36.29,-72.61 45.09,-78.5 46.84,-71.72"/>
<text text-anchor="middle" x="63.5" y="-92.8" font-family="Times,serif" font-size="14.00">14</text>
</g>
<!-- 4&#45;&gt;1 -->
<g id="edge4" class="edge">
<title>4&#45;&gt;1</title>
<path fill="none" stroke="black" d="M126.99,-156.38C170.02,-149.75 283.57,-132.24 335.89,-124.18"/>
<polygon fill="black" stroke="black" points="336.73,-127.59 346.08,-122.61 335.66,-120.67 336.73,-127.59"/>
<text text-anchor="middle" x="241" y="-142.8" font-family="Times,serif" font-size="14.00">0</text>
</g>
<!-- 3 -->
<g id="node4" class="node">
<title>3</title>
<ellipse fill="none" stroke="black" cx="455" cy="-266" rx="18" ry="18"/>
<text text-anchor="middle" x="455" y="-262.3" font-family="Times,serif" font-size="14.00">3</text>
</g>
<!-- 4&#45;&gt;3 -->
<g id="edge5" class="edge">
<title>4&#45;&gt;3</title>
<path fill="none" stroke="black" d="M110.94,-176.93C113.7,-224.21 123.02,-351.07 145,-386 160.49,-410.63 169.91,-423 199,-423 199,-423 199,-423 365,-423 423.59,-423 444.07,-339.22 450.86,-294.06"/>
<polygon fill="black" stroke="black" points="454.35,-294.39 452.24,-284.01 447.41,-293.44 454.35,-294.39"/>
<text text-anchor="middle" x="282" y="-426.8" font-family="Times,serif" font-size="14.00">0</text>
</g>
<!-- 2 -->
<g id="node5" class="node">
<title>2</title>
<ellipse fill="none" stroke="black" cx="200" cy="-221" rx="18" ry="18"/>
<text text-anchor="middle" x="200" y="-217.3" font-family="Times,serif" font-size="14.00">2</text>
</g>
<!-- 4&#45;&gt;2 -->
<g id="edge6" class="edge">
<title>4&#45;&gt;2</title>
<path fill="none" stroke="black" d="M127.28,-160.87C138.53,-162.75 153.08,-166.52 164,-174 172.5,-179.83 179.76,-188.41 185.42,-196.65"/>
<polygon fill="black" stroke="black" points="182.61,-198.74 190.93,-205.31 188.52,-194.99 182.61,-198.74"/>
<text text-anchor="middle" x="154.5" y="-177.8" font-family="Times,serif" font-size="14.00">0</text>
</g>
<!-- 1&#45;&gt;5 -->
<g id="edge7" class="edge">
<title>1&#45;&gt;5</title>
<path fill="none" stroke="black" d="M359.74,-102.29C352.47,-68.91 331.57,0 283,0 108,0 108,0 108,0 77.04,0 50.49,-26.5 34.64,-46.89"/>
<polygon fill="black" stroke="black" points="31.65,-45.03 28.52,-55.15 37.28,-49.2 31.65,-45.03"/>
<text text-anchor="middle" x="200" y="-3.8" font-family="Times,serif" font-size="14.00">21</text>
</g>
<!-- 1&#45;&gt;4 -->
<g id="edge8" class="edge">
<title>1&#45;&gt;4</title>
<path fill="none" stroke="black" d="M345.95,-119.81C323.17,-119.56 281.55,-119.15 246,-119 241.56,-118.98 240.4,-118.36 236,-119 194.25,-125.06 185.02,-132.65 145,-146 141.86,-147.05 138.59,-148.19 135.35,-149.36"/>
<polygon fill="black" stroke="black" points="134.12,-146.08 125.95,-152.82 136.54,-152.65 134.12,-146.08"/>
<text text-anchor="middle" x="241" y="-122.8" font-family="Times,serif" font-size="14.00">1</text>
</g>
<!-- 1&#45;&gt;3 -->
<g id="edge9" class="edge">
<title>1&#45;&gt;3</title>
<path fill="none" stroke="black" d="M381.84,-117.25C393.62,-116.32 408.99,-117.25 419,-126 435.65,-140.56 445.99,-201.63 450.79,-238.13"/>
<polygon fill="black" stroke="black" points="447.33,-238.67 452.06,-248.16 454.28,-237.8 447.33,-238.67"/>
<text text-anchor="middle" x="409.5" y="-129.8" font-family="Times,serif" font-size="14.00">0</text>
</g>
<!-- 0 -->
<g id="node6" class="node">
<title>0</title>
<ellipse fill="none" stroke="black" cx="282" cy="-205" rx="18" ry="18"/>
<text text-anchor="middle" x="282" y="-201.3" font-family="Times,serif" font-size="14.00">0</text>
</g>
<!-- 1&#45;&gt;0 -->
<g id="edge10" class="edge">
<title>1&#45;&gt;0</title>
<path fill="none" stroke="black" d="M348.21,-128.96C338.9,-135.03 326.99,-143.64 318,-153 310.08,-161.24 302.77,-171.47 296.9,-180.67"/>
<polygon fill="black" stroke="black" points="293.79,-179.06 291.55,-189.41 299.76,-182.72 293.79,-179.06"/>
<text text-anchor="middle" x="323" y="-156.8" font-family="Times,serif" font-size="14.00">0</text>
</g>
<!-- 3&#45;&gt;4 -->
<g id="edge13" class="edge">
<title>3&#45;&gt;4</title>
<path fill="none" stroke="black" d="M448.58,-283.03C437.85,-312.99 410.9,-372 365,-372 199,-372 199,-372 199,-372 119.93,-372 109.87,-245.5 109.42,-187.47"/>
<polygon fill="black" stroke="black" points="112.92,-187.17 109.44,-177.16 105.92,-187.15 112.92,-187.17"/>
<text text-anchor="middle" x="282" y="-375.8" font-family="Times,serif" font-size="14.00">5</text>
</g>
<!-- 3&#45;&gt;1 -->
<g id="edge11" class="edge">
<title>3&#45;&gt;1</title>
<path fill="none" stroke="black" d="M450.88,-248.25C446.49,-226.98 436.94,-190.95 419,-165 410.87,-153.24 398.87,-142.81 388.24,-134.97"/>
<polygon fill="black" stroke="black" points="389.95,-131.89 379.75,-129.01 385.93,-137.62 389.95,-131.89"/>
<text text-anchor="middle" x="409.5" y="-168.8" font-family="Times,serif" font-size="14.00">11</text>
</g>
<!-- 3&#45;&gt;2 -->
<g id="edge12" class="edge">
<title>3&#45;&gt;2</title>
<path fill="none" stroke="black" d="M436.96,-265.69C426.32,-265.42 412.35,-264.91 400,-264 325.94,-258.52 307.61,-251.69 236,-232 233.12,-231.21 230.12,-230.34 227.15,-229.44"/>
<polygon fill="black" stroke="black" points="227.9,-226.01 217.31,-226.39 225.82,-232.7 227.9,-226.01"/>
<text text-anchor="middle" x="323" y="-258.8" font-family="Times,serif" font-size="14.00">2</text>
</g>
<!-- 3&#45;&gt;0 -->
<g id="edge14" class="edge">
<title>3&#45;&gt;0</title>
<path fill="none" stroke="black" d="M443.02,-252.39C430.21,-237.8 407.51,-215.7 382,-208 358.42,-200.88 330.23,-200.79 309.97,-202.09"/>
<polygon fill="black" stroke="black" points="309.58,-198.61 299.89,-202.89 310.14,-205.59 309.58,-198.61"/>
<text text-anchor="middle" x="364" y="-211.8" font-family="Times,serif" font-size="14.00">0</text>
</g>
<!-- 2&#45;&gt;4 -->
<g id="edge19" class="edge">
<title>2&#45;&gt;4</title>
<path fill="none" stroke="black" d="M183.42,-212.72C172.39,-206.62 157.4,-197.89 145,-189 140.2,-185.56 135.26,-181.62 130.66,-177.74"/>
<polygon fill="black" stroke="black" points="132.7,-174.87 122.85,-170.96 128.11,-180.16 132.7,-174.87"/>
<text text-anchor="middle" x="154.5" y="-204.8" font-family="Times,serif" font-size="14.00">12</text>
</g>
<!-- 2&#45;&gt;3 -->
<g id="edge18" class="edge">
<title>2&#45;&gt;3</title>
<path fill="none" stroke="black" d="M214.4,-232.26C220.69,-237.2 228.45,-242.81 236,-247 247.69,-253.49 251.36,-253.65 264,-258 287.67,-266.14 293.32,-269.8 318,-274 353.97,-280.12 363.52,-277.11 400,-278 408.44,-278.21 410.67,-279.39 419,-278 422.13,-277.48 425.36,-276.71 428.52,-275.81"/>
<polygon fill="black" stroke="black" points="429.84,-279.07 438.26,-272.63 427.67,-272.41 429.84,-279.07"/>
<text text-anchor="middle" x="323" y="-278.8" font-family="Times,serif" font-size="14.00">0</text>
</g>
<!-- 2&#45;&gt;0 -->
<g id="edge20" class="edge">
<title>2&#45;&gt;0</title>
<path fill="none" stroke="black" d="M212.99,-208.01C219.22,-202.23 227.34,-196.04 236,-193 242.41,-190.75 249.46,-191.27 256.03,-192.98"/>
<polygon fill="black" stroke="black" points="255.23,-196.41 265.82,-196.43 257.55,-189.81 255.23,-196.41"/>
<text text-anchor="middle" x="241" y="-196.8" font-family="Times,serif" font-size="14.00">0</text>
</g>
<!-- 0&#45;&gt;1 -->
<g id="edge15" class="edge">
<title>0&#45;&gt;1</title>
<path fill="none" stroke="black" d="M297.17,-194.83C306.45,-187.82 318.56,-178 328,-168 335.07,-160.51 341.95,-151.56 347.71,-143.42"/>
<polygon fill="black" stroke="black" points="350.7,-145.25 353.48,-135.03 344.93,-141.29 350.7,-145.25"/>
<text text-anchor="middle" x="323" y="-179.8" font-family="Times,serif" font-size="14.00">7</text>
</g>
<!-- 0&#45;&gt;3 -->
<g id="edge16" class="edge">
<title>0&#45;&gt;3</title>
<path fill="none" stroke="black" d="M299.09,-210.74C328.75,-221.32 392.3,-243.99 428.1,-256.76"/>
<polygon fill="black" stroke="black" points="427.24,-260.17 437.83,-260.23 429.59,-253.58 427.24,-260.17"/>
<text text-anchor="middle" x="364" y="-242.8" font-family="Times,serif" font-size="14.00">10</text>
</g>
<!-- 0&#45;&gt;2 -->
<g id="edge17" class="edge">
<title>0&#45;&gt;2</title>
<path fill="none" stroke="black" d="M264.06,-208.39C253.56,-210.49 239.85,-213.23 227.9,-215.62"/>
<polygon fill="black" stroke="black" points="227.09,-212.21 217.97,-217.61 228.46,-219.08 227.09,-212.21"/>
<text text-anchor="middle" x="241" y="-216.8" font-family="Times,serif" font-size="14.00">8</text>
</g>
</g>
</svg>
