<?xml version="1.0" encoding="UTF-8" standalone="no"?>
<!DOCTYPE svg PUBLIC "-//W3C//DTD SVG 1.1//EN"
 "http://www.w3.org/Graphics/SVG/1.1/DTD/svg11.dtd">
<!-- Generated by graphviz version 2.42.3 (20191010.1750)
 -->
<!-- Title: gr Pages: 1 -->
<svg width="645pt" height="265pt"
 viewBox="0.00 0.00 644.99 265.00" xmlns="http://www.w3.org/2000/svg" xmlns:xlink="http://www.w3.org/1999/xlink">
<g id="graph0" class="graph" transform="scale(1 1) rotate(0) translate(4 261)">
<title>gr</title>
<polygon fill="white" stroke="transparent" points="-4,4 -4,-261 640.99,-261 640.99,4 -4,4"/>
<!-- 1 -->
<g id="node1" class="node">
<title>1</title>
<ellipse fill="none" stroke="black" cx="220" cy="-143" rx="18" ry="18"/>
<ellipse fill="none" stroke="black" cx="220" cy="-143" rx="22" ry="22"/>
<text text-anchor="middle" x="220" y="-139.3" font-family="Times,serif" font-size="14.00">1</text>
</g>
<!-- 4 -->
<g id="node6" class="node">
<title>4</title>
<ellipse fill="none" stroke="black" cx="371" cy="-139" rx="18" ry="18"/>
<text text-anchor="middle" x="371" y="-135.3" font-family="Times,serif" font-size="14.00">4</text>
</g>
<!-- 1&#45;&gt;4 -->
<g id="edge4" class="edge">
<title>1&#45;&gt;4</title>
<path fill="none" stroke="black" d="M242.03,-142.44C268.35,-141.73 313.48,-140.52 342.51,-139.74"/>
<polygon fill="black" stroke="black" points="342.87,-143.23 352.78,-139.46 342.69,-136.23 342.87,-143.23"/>
<text text-anchor="middle" x="269" y="-144.8" font-family="Times,serif" font-size="14.00">2/2</text>
</g>
<!-- 6 -->
<g id="node7" class="node">
<title>6</title>
<ellipse fill="none" stroke="black" cx="315.5" cy="-80" rx="18" ry="18"/>
<text text-anchor="middle" x="315.5" y="-76.3" font-family="Times,serif" font-size="14.00">6</text>
</g>
<!-- 1&#45;&gt;6 -->
<g id="edge5" class="edge">
<title>1&#45;&gt;6</title>
<path fill="none" stroke="black" d="M235.59,-127.04C242.54,-120.02 251.23,-112.03 260,-106 268.98,-99.83 279.64,-94.39 289.15,-90.09"/>
<polygon fill="black" stroke="black" points="290.72,-93.23 298.52,-86.06 287.95,-86.8 290.72,-93.23"/>
<text text-anchor="middle" x="269" y="-109.8" font-family="Times,serif" font-size="14.00">2/2</text>
</g>
<!-- 5 -->
<g id="node8" class="node">
<title>5</title>
<ellipse fill="none" stroke="black" cx="315.5" cy="-200" rx="18" ry="18"/>
<text text-anchor="middle" x="315.5" y="-196.3" font-family="Times,serif" font-size="14.00">5</text>
</g>
<!-- 1&#45;&gt;5 -->
<g id="edge6" class="edge">
<title>1&#45;&gt;5</title>
<path fill="none" stroke="black" d="M239.47,-154.26C254.24,-163.27 275.04,-175.95 291,-185.67"/>
<polygon fill="black" stroke="black" points="289.39,-188.79 299.75,-191.01 293.03,-182.82 289.39,-188.79"/>
<text text-anchor="middle" x="269" y="-179.8" font-family="Times,serif" font-size="14.00">2/2</text>
</g>
<!-- 12 -->
<g id="node2" class="node">
<title>12</title>
<ellipse fill="none" stroke="black" cx="613.49" cy="-220" rx="19.5" ry="19.5"/>
<ellipse fill="none" stroke="black" cx="613.49" cy="-220" rx="23.5" ry="23.5"/>
<text text-anchor="middle" x="613.49" y="-216.3" font-family="Times,serif" font-size="14.00">12</text>
</g>
<!-- 0 -->
<g id="node3" class="node">
<title>0</title>
<ellipse fill="none" stroke="black" cx="18" cy="-143" rx="18" ry="18"/>
<text text-anchor="middle" x="18" y="-139.3" font-family="Times,serif" font-size="14.00">0</text>
</g>
<!-- 0&#45;&gt;1 -->
<g id="edge3" class="edge">
<title>0&#45;&gt;1</title>
<path fill="none" stroke="black" d="M36.05,-143C69.67,-143 144.93,-143 187.71,-143"/>
<polygon fill="black" stroke="black" points="187.84,-146.5 197.84,-143 187.84,-139.5 187.84,-146.5"/>
<text text-anchor="middle" x="108" y="-146.8" font-family="Times,serif" font-size="14.00">0/4</text>
</g>
<!-- 3 -->
<g id="node4" class="node">
<title>3</title>
<ellipse fill="none" stroke="black" cx="108" cy="-72" rx="18" ry="18"/>
<text text-anchor="middle" x="108" y="-68.3" font-family="Times,serif" font-size="14.00">3</text>
</g>
<!-- 0&#45;&gt;3 -->
<g id="edge1" class="edge">
<title>0&#45;&gt;3</title>
<path fill="none" stroke="black" d="M32.24,-131.91C38.76,-126.48 46.77,-119.86 54,-114 64.3,-105.65 75.83,-96.5 85.49,-88.87"/>
<polygon fill="black" stroke="black" points="87.74,-91.56 93.43,-82.62 83.41,-86.06 87.74,-91.56"/>
<text text-anchor="middle" x="63" y="-117.8" font-family="Times,serif" font-size="14.00">0/2</text>
</g>
<!-- 2 -->
<g id="node5" class="node">
<title>2</title>
<ellipse fill="none" stroke="black" cx="162" cy="-204" rx="18" ry="18"/>
<text text-anchor="middle" x="162" y="-200.3" font-family="Times,serif" font-size="14.00">2</text>
</g>
<!-- 0&#45;&gt;2 -->
<g id="edge2" class="edge">
<title>0&#45;&gt;2</title>
<path fill="none" stroke="black" d="M34.74,-149.76C59.16,-160.25 106.39,-180.54 135.66,-193.11"/>
<polygon fill="black" stroke="black" points="134.62,-196.48 145.19,-197.21 137.38,-190.05 134.62,-196.48"/>
<text text-anchor="middle" x="63" y="-168.8" font-family="Times,serif" font-size="14.00">0/2</text>
</g>
<!-- 3&#45;&gt;6 -->
<g id="edge10" class="edge">
<title>3&#45;&gt;6</title>
<path fill="none" stroke="black" d="M126.17,-72.67C161.83,-74.06 244.17,-77.26 287.2,-78.94"/>
<polygon fill="black" stroke="black" points="287.11,-82.44 297.24,-79.33 287.38,-75.44 287.11,-82.44"/>
<text text-anchor="middle" x="220" y="-80.8" font-family="Times,serif" font-size="14.00">0/2</text>
</g>
<!-- 8 -->
<g id="node10" class="node">
<title>8</title>
<ellipse fill="none" stroke="black" cx="220" cy="-18" rx="18" ry="18"/>
<text text-anchor="middle" x="220" y="-14.3" font-family="Times,serif" font-size="14.00">8</text>
</g>
<!-- 3&#45;&gt;8 -->
<g id="edge11" class="edge">
<title>3&#45;&gt;8</title>
<path fill="none" stroke="black" d="M121.45,-59.74C127.79,-54.03 135.86,-47.52 144,-43 159.06,-34.64 177.39,-28.46 192.15,-24.34"/>
<polygon fill="black" stroke="black" points="193.4,-27.64 202.18,-21.71 191.62,-20.87 193.4,-27.64"/>
<text text-anchor="middle" x="162" y="-46.8" font-family="Times,serif" font-size="14.00">0/2</text>
</g>
<!-- 2&#45;&gt;5 -->
<g id="edge8" class="edge">
<title>2&#45;&gt;5</title>
<path fill="none" stroke="black" d="M180.08,-203.55C206.11,-202.86 255.95,-201.55 287.08,-200.72"/>
<polygon fill="black" stroke="black" points="287.34,-204.22 297.24,-200.46 287.16,-197.22 287.34,-204.22"/>
<text text-anchor="middle" x="220" y="-206.8" font-family="Times,serif" font-size="14.00">0/2</text>
</g>
<!-- 10 -->
<g id="node9" class="node">
<title>10</title>
<ellipse fill="none" stroke="black" cx="516.49" cy="-188" rx="19.5" ry="19.5"/>
<text text-anchor="middle" x="516.49" y="-184.3" font-family="Times,serif" font-size="14.00">10</text>
</g>
<!-- 4&#45;&gt;10 -->
<g id="edge7" class="edge">
<title>4&#45;&gt;10</title>
<path fill="none" stroke="black" d="M388.99,-140.41C403.59,-141.96 425.08,-145.07 443,-151 459.56,-156.48 477.02,-165.29 490.65,-172.93"/>
<polygon fill="black" stroke="black" points="489.01,-176.02 499.42,-177.98 492.5,-169.96 489.01,-176.02"/>
<text text-anchor="middle" x="425" y="-154.8" font-family="Times,serif" font-size="14.00">2/2</text>
</g>
<!-- 9 -->
<g id="node11" class="node">
<title>9</title>
<ellipse fill="none" stroke="black" cx="425" cy="-80" rx="18" ry="18"/>
<text text-anchor="middle" x="425" y="-76.3" font-family="Times,serif" font-size="14.00">9</text>
</g>
<!-- 6&#45;&gt;9 -->
<g id="edge12" class="edge">
<title>6&#45;&gt;9</title>
<path fill="none" stroke="black" d="M333.77,-80C350.7,-80 376.76,-80 396.53,-80"/>
<polygon fill="black" stroke="black" points="396.77,-83.5 406.77,-80 396.77,-76.5 396.77,-83.5"/>
<text text-anchor="middle" x="371" y="-83.8" font-family="Times,serif" font-size="14.00">2/2</text>
</g>
<!-- 5&#45;&gt;10 -->
<g id="edge16" class="edge">
<title>5&#45;&gt;10</title>
<path fill="none" stroke="black" d="M333.81,-198.96C368.08,-196.89 444.88,-192.26 486.82,-189.73"/>
<polygon fill="black" stroke="black" points="487.16,-193.22 496.93,-189.12 486.74,-186.23 487.16,-193.22"/>
<text text-anchor="middle" x="425" y="-197.8" font-family="Times,serif" font-size="14.00">1/1</text>
</g>
<!-- 7 -->
<g id="node13" class="node">
<title>7</title>
<ellipse fill="none" stroke="black" cx="425" cy="-239" rx="18" ry="18"/>
<text text-anchor="middle" x="425" y="-235.3" font-family="Times,serif" font-size="14.00">7</text>
</g>
<!-- 5&#45;&gt;7 -->
<g id="edge17" class="edge">
<title>5&#45;&gt;7</title>
<path fill="none" stroke="black" d="M332.82,-205.92C350.21,-212.23 377.96,-222.3 398.29,-229.67"/>
<polygon fill="black" stroke="black" points="397.27,-233.03 407.87,-233.15 399.66,-226.45 397.27,-233.03"/>
<text text-anchor="middle" x="371" y="-228.8" font-family="Times,serif" font-size="14.00">1/1</text>
</g>
<!-- 10&#45;&gt;12 -->
<g id="edge9" class="edge">
<title>10&#45;&gt;12</title>
<path fill="none" stroke="black" d="M535.36,-194.02C548.33,-198.39 566.19,-204.4 581.46,-209.55"/>
<polygon fill="black" stroke="black" points="580.45,-212.9 591.04,-212.78 582.69,-206.27 580.45,-212.9"/>
<text text-anchor="middle" x="562.99" y="-208.8" font-family="Times,serif" font-size="14.00">6/6</text>
</g>
<!-- 11 -->
<g id="node12" class="node">
<title>11</title>
<ellipse fill="none" stroke="black" cx="315.5" cy="-20" rx="19.5" ry="19.5"/>
<text text-anchor="middle" x="315.5" y="-16.3" font-family="Times,serif" font-size="14.00">11</text>
</g>
<!-- 8&#45;&gt;11 -->
<g id="edge13" class="edge">
<title>8&#45;&gt;11</title>
<path fill="none" stroke="black" d="M238.15,-18.37C251.43,-18.65 270.12,-19.05 285.68,-19.38"/>
<polygon fill="black" stroke="black" points="285.78,-22.89 295.85,-19.6 285.93,-15.89 285.78,-22.89"/>
<text text-anchor="middle" x="269" y="-23.8" font-family="Times,serif" font-size="14.00">0/2</text>
</g>
<!-- 9&#45;&gt;10 -->
<g id="edge15" class="edge">
<title>9&#45;&gt;10</title>
<path fill="none" stroke="black" d="M442.62,-85.51C454.08,-90.02 469,-97.4 479,-108 492.62,-122.44 501.82,-142.84 507.57,-159.43"/>
<polygon fill="black" stroke="black" points="504.32,-160.74 510.72,-169.18 510.98,-158.59 504.32,-160.74"/>
<text text-anchor="middle" x="470" y="-111.8" font-family="Times,serif" font-size="14.00">2/4</text>
</g>
<!-- 11&#45;&gt;9 -->
<g id="edge14" class="edge">
<title>11&#45;&gt;9</title>
<path fill="none" stroke="black" d="M332.82,-29.11C350.75,-39.12 379.71,-55.28 400.17,-66.7"/>
<polygon fill="black" stroke="black" points="398.47,-69.76 408.91,-71.58 401.88,-63.65 398.47,-69.76"/>
<text text-anchor="middle" x="371" y="-61.8" font-family="Times,serif" font-size="14.00">0/2</text>
</g>
<!-- 7&#45;&gt;12 -->
<g id="edge18" class="edge">
<title>7&#45;&gt;12</title>
<path fill="none" stroke="black" d="M443.21,-238.74C453.59,-238.48 467.07,-237.98 479,-237 513.53,-234.16 552.86,-228.9 579.83,-224.98"/>
<polygon fill="black" stroke="black" points="580.5,-228.42 589.88,-223.5 579.48,-221.5 580.5,-228.42"/>
<text text-anchor="middle" x="516.49" y="-238.8" font-family="Times,serif" font-size="14.00">0/2</text>
</g>
<!-- 7&#45;&gt;10 -->
<g id="edge19" class="edge">
<title>7&#45;&gt;10</title>
<path fill="none" stroke="black" d="M441.18,-230.35C454.6,-222.7 474.45,-211.39 490.26,-202.38"/>
<polygon fill="black" stroke="black" points="492.07,-205.38 499.02,-197.39 488.6,-199.3 492.07,-205.38"/>
<text text-anchor="middle" x="470" y="-221.8" font-family="Times,serif" font-size="14.00">1/1</text>
</g>
</g>
</svg>
