<?xml version="1.0" encoding="UTF-8" standalone="no"?>
<!DOCTYPE svg PUBLIC "-//W3C//DTD SVG 1.1//EN"
 "http://www.w3.org/Graphics/SVG/1.1/DTD/svg11.dtd">
<!-- Generated by graphviz version 2.42.3 (20191010.1750)
 -->
<!-- Title: gr Pages: 1 -->
<svg width="629pt" height="265pt"
 viewBox="0.00 0.00 628.99 265.00" xmlns="http://www.w3.org/2000/svg" xmlns:xlink="http://www.w3.org/1999/xlink">
<g id="graph0" class="graph" transform="scale(1 1) rotate(0) translate(4 261)">
<title>gr</title>
<polygon fill="white" stroke="transparent" points="-4,4 -4,-261 624.99,-261 624.99,4 -4,4"/>
<!-- 0 -->
<g id="node1" class="node">
<title>0</title>
<ellipse fill="none" stroke="black" cx="18" cy="-143" rx="18" ry="18"/>
<text text-anchor="middle" x="18" y="-139.3" font-family="Times,serif" font-size="14.00">0</text>
</g>
<!-- 3 -->
<g id="node2" class="node">
<title>3</title>
<ellipse fill="none" stroke="black" cx="108" cy="-72" rx="18" ry="18"/>
<text text-anchor="middle" x="108" y="-68.3" font-family="Times,serif" font-size="14.00">3</text>
</g>
<!-- 0&#45;&gt;3 -->
<g id="edge1" class="edge">
<title>0&#45;&gt;3</title>
<path fill="none" stroke="black" d="M32.24,-131.91C38.76,-126.48 46.77,-119.86 54,-114 64.3,-105.65 75.83,-96.5 85.49,-88.87"/>
<polygon fill="black" stroke="black" points="87.74,-91.56 93.43,-82.62 83.41,-86.06 87.74,-91.56"/>
<text text-anchor="middle" x="63" y="-117.8" font-family="Times,serif" font-size="14.00">0/2</text>
</g>
<!-- 2 -->
<g id="node3" class="node">
<title>2</title>
<ellipse fill="none" stroke="black" cx="162" cy="-204" rx="18" ry="18"/>
<text text-anchor="middle" x="162" y="-200.3" font-family="Times,serif" font-size="14.00">2</text>
</g>
<!-- 0&#45;&gt;2 -->
<g id="edge2" class="edge">
<title>0&#45;&gt;2</title>
<path fill="none" stroke="black" d="M34.74,-149.76C59.16,-160.25 106.39,-180.54 135.66,-193.11"/>
<polygon fill="black" stroke="black" points="134.62,-196.48 145.19,-197.21 137.38,-190.05 134.62,-196.48"/>
<text text-anchor="middle" x="63" y="-168.8" font-family="Times,serif" font-size="14.00">2/2</text>
</g>
<!-- 1 -->
<g id="node4" class="node">
<title>1</title>
<ellipse fill="none" stroke="black" cx="216" cy="-143" rx="18" ry="18"/>
<text text-anchor="middle" x="216" y="-139.3" font-family="Times,serif" font-size="14.00">1</text>
</g>
<!-- 0&#45;&gt;1 -->
<g id="edge3" class="edge">
<title>0&#45;&gt;1</title>
<path fill="none" stroke="black" d="M36.05,-143C70.08,-143 146.66,-143 187.74,-143"/>
<polygon fill="black" stroke="black" points="187.85,-146.5 197.85,-143 187.85,-139.5 187.85,-146.5"/>
<text text-anchor="middle" x="108" y="-146.8" font-family="Times,serif" font-size="14.00">0/4</text>
</g>
<!-- 6 -->
<g id="node6" class="node">
<title>6</title>
<ellipse fill="none" stroke="black" cx="307.5" cy="-82" rx="18" ry="18"/>
<text text-anchor="middle" x="307.5" y="-78.3" font-family="Times,serif" font-size="14.00">6</text>
</g>
<!-- 3&#45;&gt;6 -->
<g id="edge10" class="edge">
<title>3&#45;&gt;6</title>
<path fill="none" stroke="black" d="M126.18,-72.87C160.55,-74.61 238.03,-78.53 279.34,-80.63"/>
<polygon fill="black" stroke="black" points="279.33,-84.13 289.5,-81.14 279.69,-77.14 279.33,-84.13"/>
<text text-anchor="middle" x="216" y="-81.8" font-family="Times,serif" font-size="14.00">0/2</text>
</g>
<!-- 8 -->
<g id="node10" class="node">
<title>8</title>
<ellipse fill="none" stroke="black" cx="216" cy="-18" rx="18" ry="18"/>
<text text-anchor="middle" x="216" y="-14.3" font-family="Times,serif" font-size="14.00">8</text>
</g>
<!-- 3&#45;&gt;8 -->
<g id="edge11" class="edge">
<title>3&#45;&gt;8</title>
<path fill="none" stroke="black" d="M121.48,-59.8C127.83,-54.11 135.9,-47.59 144,-43 157.86,-35.15 174.63,-29.11 188.38,-24.93"/>
<polygon fill="black" stroke="black" points="189.57,-28.23 198.22,-22.1 187.64,-21.5 189.57,-28.23"/>
<text text-anchor="middle" x="162" y="-46.8" font-family="Times,serif" font-size="14.00">0/2</text>
</g>
<!-- 5 -->
<g id="node7" class="node">
<title>5</title>
<ellipse fill="none" stroke="black" cx="307.5" cy="-200" rx="18" ry="18"/>
<text text-anchor="middle" x="307.5" y="-196.3" font-family="Times,serif" font-size="14.00">5</text>
</g>
<!-- 2&#45;&gt;5 -->
<g id="edge8" class="edge">
<title>2&#45;&gt;5</title>
<path fill="none" stroke="black" d="M180.02,-203.53C204.51,-202.84 249.94,-201.58 279.17,-200.76"/>
<polygon fill="black" stroke="black" points="279.6,-204.25 289.5,-200.47 279.4,-197.25 279.6,-204.25"/>
<text text-anchor="middle" x="216" y="-205.8" font-family="Times,serif" font-size="14.00">0/2</text>
</g>
<!-- 4 -->
<g id="node5" class="node">
<title>4</title>
<ellipse fill="none" stroke="black" cx="363" cy="-140" rx="18" ry="18"/>
<text text-anchor="middle" x="363" y="-136.3" font-family="Times,serif" font-size="14.00">4</text>
</g>
<!-- 1&#45;&gt;4 -->
<g id="edge4" class="edge">
<title>1&#45;&gt;4</title>
<path fill="none" stroke="black" d="M234.2,-142.64C259.06,-142.13 305.26,-141.17 334.77,-140.56"/>
<polygon fill="black" stroke="black" points="334.89,-144.06 344.82,-140.36 334.75,-137.06 334.89,-144.06"/>
<text text-anchor="middle" x="261" y="-145.8" font-family="Times,serif" font-size="14.00">0/2</text>
</g>
<!-- 1&#45;&gt;6 -->
<g id="edge5" class="edge">
<title>1&#45;&gt;6</title>
<path fill="none" stroke="black" d="M227.87,-129.03C234.27,-121.48 242.89,-112.42 252,-106 260.65,-99.9 271.11,-94.84 280.53,-90.96"/>
<polygon fill="black" stroke="black" points="281.8,-94.23 289.87,-87.36 279.28,-87.7 281.8,-94.23"/>
<text text-anchor="middle" x="261" y="-109.8" font-family="Times,serif" font-size="14.00">0/2</text>
</g>
<!-- 1&#45;&gt;5 -->
<g id="edge6" class="edge">
<title>1&#45;&gt;5</title>
<path fill="none" stroke="black" d="M231.78,-152.41C245.85,-161.38 267.25,-175 283.55,-185.38"/>
<polygon fill="black" stroke="black" points="281.68,-188.34 291.99,-190.76 285.44,-182.44 281.68,-188.34"/>
<text text-anchor="middle" x="261" y="-179.8" font-family="Times,serif" font-size="14.00">0/2</text>
</g>
<!-- 10 -->
<g id="node8" class="node">
<title>10</title>
<ellipse fill="none" stroke="black" cx="508.49" cy="-188" rx="19.5" ry="19.5"/>
<text text-anchor="middle" x="508.49" y="-184.3" font-family="Times,serif" font-size="14.00">10</text>
</g>
<!-- 4&#45;&gt;10 -->
<g id="edge7" class="edge">
<title>4&#45;&gt;10</title>
<path fill="none" stroke="black" d="M380.99,-141.11C395.59,-142.42 417.08,-145.2 435,-151 451.6,-156.37 469.06,-165.17 482.68,-172.84"/>
<polygon fill="black" stroke="black" points="481.03,-175.93 491.44,-177.91 484.54,-169.87 481.03,-175.93"/>
<text text-anchor="middle" x="417" y="-154.8" font-family="Times,serif" font-size="14.00">0/2</text>
</g>
<!-- 9 -->
<g id="node11" class="node">
<title>9</title>
<ellipse fill="none" stroke="black" cx="417" cy="-82" rx="18" ry="18"/>
<text text-anchor="middle" x="417" y="-78.3" font-family="Times,serif" font-size="14.00">9</text>
</g>
<!-- 6&#45;&gt;9 -->
<g id="edge12" class="edge">
<title>6&#45;&gt;9</title>
<path fill="none" stroke="black" d="M325.77,-82C342.7,-82 368.76,-82 388.53,-82"/>
<polygon fill="black" stroke="black" points="388.77,-85.5 398.77,-82 388.77,-78.5 388.77,-85.5"/>
<text text-anchor="middle" x="363" y="-85.8" font-family="Times,serif" font-size="14.00">0/2</text>
</g>
<!-- 5&#45;&gt;10 -->
<g id="edge16" class="edge">
<title>5&#45;&gt;10</title>
<path fill="none" stroke="black" d="M325.81,-198.96C360.08,-196.89 436.88,-192.26 478.82,-189.73"/>
<polygon fill="black" stroke="black" points="479.16,-193.22 488.93,-189.12 478.74,-186.23 479.16,-193.22"/>
<text text-anchor="middle" x="417" y="-197.8" font-family="Times,serif" font-size="14.00">0/1</text>
</g>
<!-- 7 -->
<g id="node13" class="node">
<title>7</title>
<ellipse fill="none" stroke="black" cx="417" cy="-239" rx="18" ry="18"/>
<text text-anchor="middle" x="417" y="-235.3" font-family="Times,serif" font-size="14.00">7</text>
</g>
<!-- 5&#45;&gt;7 -->
<g id="edge17" class="edge">
<title>5&#45;&gt;7</title>
<path fill="none" stroke="black" d="M324.82,-205.92C342.21,-212.23 369.96,-222.3 390.29,-229.67"/>
<polygon fill="black" stroke="black" points="389.27,-233.03 399.87,-233.15 391.66,-226.45 389.27,-233.03"/>
<text text-anchor="middle" x="363" y="-228.8" font-family="Times,serif" font-size="14.00">0/1</text>
</g>
<!-- 12 -->
<g id="node9" class="node">
<title>12</title>
<ellipse fill="none" stroke="black" cx="601.49" cy="-220" rx="19.5" ry="19.5"/>
<text text-anchor="middle" x="601.49" y="-216.3" font-family="Times,serif" font-size="14.00">12</text>
</g>
<!-- 10&#45;&gt;12 -->
<g id="edge9" class="edge">
<title>10&#45;&gt;12</title>
<path fill="none" stroke="black" d="M527.04,-194.17C540.05,-198.74 558.03,-205.07 572.95,-210.32"/>
<polygon fill="black" stroke="black" points="572.09,-213.72 582.69,-213.74 574.42,-207.12 572.09,-213.72"/>
<text text-anchor="middle" x="554.99" y="-209.8" font-family="Times,serif" font-size="14.00">0/6</text>
</g>
<!-- 11 -->
<g id="node12" class="node">
<title>11</title>
<ellipse fill="none" stroke="black" cx="307.5" cy="-26" rx="19.5" ry="19.5"/>
<text text-anchor="middle" x="307.5" y="-22.3" font-family="Times,serif" font-size="14.00">11</text>
</g>
<!-- 8&#45;&gt;11 -->
<g id="edge13" class="edge">
<title>8&#45;&gt;11</title>
<path fill="none" stroke="black" d="M234.26,-19.54C246.56,-20.64 263.39,-22.15 277.72,-23.43"/>
<polygon fill="black" stroke="black" points="277.79,-26.95 288.06,-24.35 278.41,-19.98 277.79,-26.95"/>
<text text-anchor="middle" x="261" y="-25.8" font-family="Times,serif" font-size="14.00">0/2</text>
</g>
<!-- 9&#45;&gt;10 -->
<g id="edge15" class="edge">
<title>9&#45;&gt;10</title>
<path fill="none" stroke="black" d="M434.62,-86.84C446.08,-90.9 460.99,-97.71 471,-108 484.83,-122.23 494.03,-142.64 499.73,-159.28"/>
<polygon fill="black" stroke="black" points="496.48,-160.6 502.84,-169.07 503.15,-158.48 496.48,-160.6"/>
<text text-anchor="middle" x="462" y="-111.8" font-family="Times,serif" font-size="14.00">0/4</text>
</g>
<!-- 11&#45;&gt;9 -->
<g id="edge14" class="edge">
<title>11&#45;&gt;9</title>
<path fill="none" stroke="black" d="M325.26,-34.4C340,-41.83 361.99,-52.99 381,-63 384.44,-64.81 388.06,-66.75 391.62,-68.66"/>
<polygon fill="black" stroke="black" points="390.25,-71.9 400.71,-73.59 393.59,-65.75 390.25,-71.9"/>
<text text-anchor="middle" x="363" y="-66.8" font-family="Times,serif" font-size="14.00">0/2</text>
</g>
<!-- 7&#45;&gt;10 -->
<g id="edge19" class="edge">
<title>7&#45;&gt;10</title>
<path fill="none" stroke="black" d="M433.18,-230.35C446.6,-222.7 466.45,-211.39 482.26,-202.38"/>
<polygon fill="black" stroke="black" points="484.07,-205.38 491.02,-197.39 480.6,-199.3 484.07,-205.38"/>
<text text-anchor="middle" x="462" y="-221.8" font-family="Times,serif" font-size="14.00">0/1</text>
</g>
<!-- 7&#45;&gt;12 -->
<g id="edge18" class="edge">
<title>7&#45;&gt;12</title>
<path fill="none" stroke="black" d="M435.21,-238.74C445.59,-238.49 459.07,-237.99 471,-237 512.53,-233.54 522.68,-230.49 563.99,-225 566.54,-224.66 569.2,-224.3 571.85,-223.94"/>
<polygon fill="black" stroke="black" points="572.49,-227.39 581.93,-222.57 571.55,-220.45 572.49,-227.39"/>
<text text-anchor="middle" x="508.49" y="-238.8" font-family="Times,serif" font-size="14.00">0/2</text>
</g>
</g>
</svg>
