<?xml version="1.0" encoding="UTF-8" standalone="no"?>
<!DOCTYPE svg PUBLIC "-//W3C//DTD SVG 1.1//EN"
 "http://www.w3.org/Graphics/SVG/1.1/DTD/svg11.dtd">
<!-- Generated by graphviz version 2.42.3 (20191010.1750)
 -->
<!-- Title: gr Pages: 1 -->
<svg width="432pt" height="154pt"
 viewBox="0.00 0.00 432.00 154.00" xmlns="http://www.w3.org/2000/svg" xmlns:xlink="http://www.w3.org/1999/xlink">
<g id="graph0" class="graph" transform="scale(1 1) rotate(0) translate(4 150)">
<title>gr</title>
<polygon fill="white" stroke="transparent" points="-4,4 -4,-150 428,-150 428,4 -4,4"/>
<!-- 0 -->
<g id="node1" class="node">
<title>0</title>
<ellipse fill="none" stroke="black" cx="18" cy="-77" rx="18" ry="18"/>
<text text-anchor="middle" x="18" y="-73.3" font-family="Times,serif" font-size="14.00">0</text>
</g>
<!-- 2 -->
<g id="node2" class="node">
<title>2</title>
<ellipse fill="none" stroke="black" cx="212" cy="-128" rx="18" ry="18"/>
<text text-anchor="middle" x="212" y="-124.3" font-family="Times,serif" font-size="14.00">2</text>
</g>
<!-- 0&#45;&gt;2 -->
<g id="edge1" class="edge">
<title>0&#45;&gt;2</title>
<path fill="none" stroke="black" d="M34.01,-86C40.08,-89.41 47.25,-93.16 54,-96 95.59,-113.52 106.5,-118.52 151,-126 161.6,-127.78 173.4,-128.45 183.72,-128.62"/>
<polygon fill="black" stroke="black" points="183.8,-132.12 193.81,-128.63 183.82,-125.12 183.8,-132.12"/>
<text text-anchor="middle" x="115" y="-125.8" font-family="Times,serif" font-size="14.00">0/8</text>
</g>
<!-- 3 -->
<g id="node3" class="node">
<title>3</title>
<ellipse fill="none" stroke="black" cx="115" cy="-77" rx="18" ry="18"/>
<text text-anchor="middle" x="115" y="-73.3" font-family="Times,serif" font-size="14.00">3</text>
</g>
<!-- 0&#45;&gt;3 -->
<g id="edge2" class="edge">
<title>0&#45;&gt;3</title>
<path fill="none" stroke="black" d="M36.42,-77C50.35,-77 70.14,-77 86.24,-77"/>
<polygon fill="black" stroke="black" points="86.69,-80.5 96.69,-77 86.69,-73.5 86.69,-80.5"/>
<text text-anchor="middle" x="66.5" y="-80.8" font-family="Times,serif" font-size="14.00">0/10</text>
</g>
<!-- 1 -->
<g id="node4" class="node">
<title>1</title>
<ellipse fill="none" stroke="black" cx="212" cy="-18" rx="18" ry="18"/>
<text text-anchor="middle" x="212" y="-14.3" font-family="Times,serif" font-size="14.00">1</text>
</g>
<!-- 0&#45;&gt;1 -->
<g id="edge3" class="edge">
<title>0&#45;&gt;1</title>
<path fill="none" stroke="black" d="M33.26,-67.35C48.4,-57.59 73.36,-42.86 97,-35 125.69,-25.46 160.22,-21.26 183.7,-19.42"/>
<polygon fill="black" stroke="black" points="184.23,-22.89 193.96,-18.71 183.75,-15.91 184.23,-22.89"/>
<text text-anchor="middle" x="115" y="-38.8" font-family="Times,serif" font-size="14.00">0/7</text>
</g>
<!-- 4 -->
<g id="node5" class="node">
<title>4</title>
<ellipse fill="none" stroke="black" cx="309" cy="-71" rx="18" ry="18"/>
<text text-anchor="middle" x="309" y="-67.3" font-family="Times,serif" font-size="14.00">4</text>
</g>
<!-- 2&#45;&gt;4 -->
<g id="edge4" class="edge">
<title>2&#45;&gt;4</title>
<path fill="none" stroke="black" d="M227.84,-119.09C243.04,-109.97 266.88,-95.67 284.62,-85.03"/>
<polygon fill="black" stroke="black" points="286.49,-87.99 293.26,-79.84 282.88,-81.99 286.49,-87.99"/>
<text text-anchor="middle" x="260.5" y="-109.8" font-family="Times,serif" font-size="14.00">0/12</text>
</g>
<!-- 3&#45;&gt;2 -->
<g id="edge6" class="edge">
<title>3&#45;&gt;2</title>
<path fill="none" stroke="black" d="M131.26,-85.19C146.22,-93.22 169.25,-105.59 186.73,-114.97"/>
<polygon fill="black" stroke="black" points="185.31,-118.18 195.77,-119.83 188.62,-112.01 185.31,-118.18"/>
<text text-anchor="middle" x="163.5" y="-111.8" font-family="Times,serif" font-size="14.00">0/2</text>
</g>
<!-- 3&#45;&gt;1 -->
<g id="edge7" class="edge">
<title>3&#45;&gt;1</title>
<path fill="none" stroke="black" d="M128.75,-65.24C135.15,-59.64 143.2,-53.09 151,-48 162.02,-40.82 174.99,-34.13 186.05,-28.91"/>
<polygon fill="black" stroke="black" points="187.55,-32.07 195.18,-24.71 184.63,-25.71 187.55,-32.07"/>
<text text-anchor="middle" x="163.5" y="-51.8" font-family="Times,serif" font-size="14.00">0/11</text>
</g>
<!-- 3&#45;&gt;4 -->
<g id="edge5" class="edge">
<title>3&#45;&gt;4</title>
<path fill="none" stroke="black" d="M133.04,-76.47C166.41,-75.42 240.64,-73.1 280.85,-71.85"/>
<polygon fill="black" stroke="black" points="281.11,-75.34 291,-71.53 280.89,-68.35 281.11,-75.34"/>
<text text-anchor="middle" x="212" y="-77.8" font-family="Times,serif" font-size="14.00">0/5</text>
</g>
<!-- 1&#45;&gt;4 -->
<g id="edge8" class="edge">
<title>1&#45;&gt;4</title>
<path fill="none" stroke="black" d="M228.55,-25.16C240.82,-30.95 258.27,-39.51 273,-48 277.01,-50.31 281.18,-52.89 285.2,-55.46"/>
<polygon fill="black" stroke="black" points="283.32,-58.42 293.6,-60.99 287.16,-52.57 283.32,-58.42"/>
<text text-anchor="middle" x="260.5" y="-51.8" font-family="Times,serif" font-size="14.00">0/1</text>
</g>
<!-- 5 -->
<g id="node6" class="node">
<title>5</title>
<ellipse fill="none" stroke="black" cx="406" cy="-30" rx="18" ry="18"/>
<text text-anchor="middle" x="406" y="-26.3" font-family="Times,serif" font-size="14.00">5</text>
</g>
<!-- 1&#45;&gt;5 -->
<g id="edge9" class="edge">
<title>1&#45;&gt;5</title>
<path fill="none" stroke="black" d="M230.04,-19.06C263.41,-21.15 337.64,-25.79 377.85,-28.3"/>
<polygon fill="black" stroke="black" points="377.8,-31.81 388,-28.94 378.24,-24.82 377.8,-31.81"/>
<text text-anchor="middle" x="309" y="-28.8" font-family="Times,serif" font-size="14.00">0/21</text>
</g>
<!-- 4&#45;&gt;5 -->
<g id="edge10" class="edge">
<title>4&#45;&gt;5</title>
<path fill="none" stroke="black" d="M325.69,-64.23C340.4,-57.88 362.65,-48.28 379.85,-40.86"/>
<polygon fill="black" stroke="black" points="381.49,-43.96 389.29,-36.78 378.72,-37.53 381.49,-43.96"/>
<text text-anchor="middle" x="357.5" y="-58.8" font-family="Times,serif" font-size="14.00">0/14</text>
</g>
</g>
</svg>
